<mxfile host="65bd71144e">
    <diagram id="ena5e6w588AghE1VZBRo" name="Page-1">
        <mxGraphModel dx="2572" dy="1816" grid="1" gridSize="10" guides="1" tooltips="1" connect="1" arrows="1" fold="1" page="1" pageScale="1" pageWidth="850" pageHeight="1100" math="0" shadow="0">
            <root>
                <mxCell id="0"/>
                <mxCell id="1" parent="0"/>
                <mxCell id="2" value="" style="rounded=0;whiteSpace=wrap;html=1;" vertex="1" parent="1">
                    <mxGeometry x="315" y="340" width="1920" height="1080" as="geometry"/>
                </mxCell>
                <mxCell id="3" value="" style="endArrow=none;html=1;entryX=0;entryY=0;entryDx=0;entryDy=0;" edge="1" parent="1" target="2">
                    <mxGeometry width="50" height="50" relative="1" as="geometry">
                        <mxPoint x="315" y="210" as="sourcePoint"/>
                        <mxPoint x="1040" y="870" as="targetPoint"/>
                    </mxGeometry>
                </mxCell>
                <mxCell id="4" value="" style="endArrow=none;html=1;exitX=1;exitY=0;exitDx=0;exitDy=0;" edge="1" parent="1" source="2">
                    <mxGeometry width="50" height="50" relative="1" as="geometry">
                        <mxPoint x="2340" y="330" as="sourcePoint"/>
                        <mxPoint x="2235" y="210" as="targetPoint"/>
                    </mxGeometry>
                </mxCell>
                <mxCell id="5" value="" style="endArrow=classic;startArrow=classic;html=1;" edge="1" parent="1">
                    <mxGeometry width="50" height="50" relative="1" as="geometry">
                        <mxPoint x="320" y="250" as="sourcePoint"/>
                        <mxPoint x="2230" y="250" as="targetPoint"/>
                    </mxGeometry>
                </mxCell>
                <mxCell id="7" value="&lt;font style=&quot;font-size: 26px;&quot;&gt;width&lt;/font&gt;" style="text;html=1;strokeColor=none;fillColor=none;align=center;verticalAlign=middle;whiteSpace=wrap;rounded=0;" vertex="1" parent="1">
                    <mxGeometry x="1245" y="190" width="60" height="30" as="geometry"/>
                </mxCell>
                <mxCell id="8" value="" style="endArrow=none;html=1;fontSize=26;entryX=0;entryY=0;entryDx=0;entryDy=0;" edge="1" parent="1" target="2">
                    <mxGeometry width="50" height="50" relative="1" as="geometry">
                        <mxPoint x="200" y="340" as="sourcePoint"/>
                        <mxPoint x="280" y="350" as="targetPoint"/>
                    </mxGeometry>
                </mxCell>
                <mxCell id="9" value="" style="endArrow=none;html=1;fontSize=26;entryX=0;entryY=1;entryDx=0;entryDy=0;" edge="1" parent="1" target="2">
                    <mxGeometry width="50" height="50" relative="1" as="geometry">
                        <mxPoint x="200" y="1420" as="sourcePoint"/>
                        <mxPoint x="250" y="1450" as="targetPoint"/>
                    </mxGeometry>
                </mxCell>
                <mxCell id="10" value="" style="endArrow=classic;startArrow=classic;html=1;fontSize=26;" edge="1" parent="1">
                    <mxGeometry width="50" height="50" relative="1" as="geometry">
                        <mxPoint x="240" y="1420" as="sourcePoint"/>
                        <mxPoint x="240" y="340" as="targetPoint"/>
                    </mxGeometry>
                </mxCell>
                <mxCell id="11" value="height" style="text;html=1;strokeColor=none;fillColor=none;align=center;verticalAlign=middle;whiteSpace=wrap;rounded=0;fontSize=26;" vertex="1" parent="1">
                    <mxGeometry x="160" y="865" width="60" height="30" as="geometry"/>
                </mxCell>
                <mxCell id="14" value="Keyboard" style="rounded=1;whiteSpace=wrap;html=1;fontSize=26;" vertex="1" parent="1">
                    <mxGeometry x="965" y="995" width="600" height="400" as="geometry"/>
                </mxCell>
                <mxCell id="16" value="" style="endArrow=none;html=1;fontSize=26;exitX=0;exitY=0.25;exitDx=0;exitDy=0;" edge="1" parent="1" source="14">
                    <mxGeometry width="50" height="50" relative="1" as="geometry">
                        <mxPoint x="1210" y="1075" as="sourcePoint"/>
                        <mxPoint x="965" y="895" as="targetPoint"/>
                    </mxGeometry>
                </mxCell>
                <mxCell id="17" value="" style="endArrow=none;html=1;fontSize=26;exitX=1;exitY=0.25;exitDx=0;exitDy=0;" edge="1" parent="1" source="14">
                    <mxGeometry width="50" height="50" relative="1" as="geometry">
                        <mxPoint x="1630" y="1085" as="sourcePoint"/>
                        <mxPoint x="1565" y="895" as="targetPoint"/>
                    </mxGeometry>
                </mxCell>
                <mxCell id="18" value="" style="endArrow=classic;startArrow=classic;html=1;fontSize=26;" edge="1" parent="1">
                    <mxGeometry width="50" height="50" relative="1" as="geometry">
                        <mxPoint x="970" y="955" as="sourcePoint"/>
                        <mxPoint x="1560" y="955" as="targetPoint"/>
                    </mxGeometry>
                </mxCell>
                <mxCell id="19" value="" style="endArrow=none;html=1;fontSize=26;entryX=0.25;entryY=0;entryDx=0;entryDy=0;" edge="1" parent="1" target="14">
                    <mxGeometry width="50" height="50" relative="1" as="geometry">
                        <mxPoint x="850" y="995" as="sourcePoint"/>
                        <mxPoint x="1260" y="1025" as="targetPoint"/>
                    </mxGeometry>
                </mxCell>
                <mxCell id="20" value="" style="endArrow=none;html=1;fontSize=26;exitX=0.25;exitY=1;exitDx=0;exitDy=0;" edge="1" parent="1" source="14">
                    <mxGeometry width="50" height="50" relative="1" as="geometry">
                        <mxPoint x="1210" y="1075" as="sourcePoint"/>
                        <mxPoint x="850" y="1395" as="targetPoint"/>
                    </mxGeometry>
                </mxCell>
                <mxCell id="21" value="" style="endArrow=classic;startArrow=classic;html=1;fontSize=26;" edge="1" parent="1">
                    <mxGeometry width="50" height="50" relative="1" as="geometry">
                        <mxPoint x="890" y="1390" as="sourcePoint"/>
                        <mxPoint x="890" y="1000" as="targetPoint"/>
                    </mxGeometry>
                </mxCell>
                <mxCell id="22" value="rectSizeX = width*.3125" style="text;html=1;strokeColor=none;fillColor=none;align=center;verticalAlign=middle;whiteSpace=wrap;rounded=0;fontSize=26;" vertex="1" parent="1">
                    <mxGeometry x="1090" y="915" width="345" height="30" as="geometry"/>
                </mxCell>
                <mxCell id="23" value="rectSizeY&lt;br&gt;" style="text;html=1;strokeColor=none;fillColor=none;align=center;verticalAlign=middle;whiteSpace=wrap;rounded=0;fontSize=26;" vertex="1" parent="1">
                    <mxGeometry x="800" y="1180" width="60" height="30" as="geometry"/>
                </mxCell>
                <mxCell id="25" value="(startCoordX, startCoordY)" style="text;html=1;strokeColor=none;fillColor=none;align=center;verticalAlign=middle;whiteSpace=wrap;rounded=0;fontSize=26;" vertex="1" parent="1">
                    <mxGeometry x="850" y="935" width="60" height="30" as="geometry"/>
                </mxCell>
                <mxCell id="27" value="(0,0)" style="text;html=1;strokeColor=none;fillColor=none;align=center;verticalAlign=middle;whiteSpace=wrap;rounded=0;fontSize=26;" vertex="1" parent="1">
                    <mxGeometry x="230" y="290" width="60" height="30" as="geometry"/>
                </mxCell>
                <mxCell id="28" value="(width, height)" style="text;html=1;strokeColor=none;fillColor=none;align=center;verticalAlign=middle;whiteSpace=wrap;rounded=0;fontSize=26;" vertex="1" parent="1">
                    <mxGeometry x="2170" y="1450" width="175" height="30" as="geometry"/>
                </mxCell>
                <mxCell id="33" value="= height*.37" style="text;html=1;strokeColor=none;fillColor=none;align=center;verticalAlign=middle;whiteSpace=wrap;rounded=0;fontSize=26;" vertex="1" parent="1">
                    <mxGeometry x="730" y="1220" width="160" height="30" as="geometry"/>
                </mxCell>
                <mxCell id="34" value="" style="endArrow=classic;startArrow=none;html=1;" edge="1" parent="1" source="37">
                    <mxGeometry width="50" height="50" relative="1" as="geometry">
                        <mxPoint x="315" y="1540" as="sourcePoint"/>
                        <mxPoint x="2225" y="1540" as="targetPoint"/>
                    </mxGeometry>
                </mxCell>
                <mxCell id="35" value="" style="endArrow=classic;startArrow=none;html=1;fontSize=26;exitX=1;exitY=0.75;exitDx=0;exitDy=0;" edge="1" parent="1" source="40">
                    <mxGeometry width="50" height="50" relative="1" as="geometry">
                        <mxPoint x="1640" y="1600" as="sourcePoint"/>
                        <mxPoint x="2230" y="1600" as="targetPoint"/>
                    </mxGeometry>
                </mxCell>
                <mxCell id="36" value="" style="endArrow=classic;startArrow=none;html=1;fontSize=26;" edge="1" parent="1" source="46">
                    <mxGeometry width="50" height="50" relative="1" as="geometry">
                        <mxPoint x="320" y="1600" as="sourcePoint"/>
                        <mxPoint x="1630" y="1600" as="targetPoint"/>
                    </mxGeometry>
                </mxCell>
                <mxCell id="39" value="" style="endArrow=none;startArrow=classic;html=1;" edge="1" parent="1" target="37">
                    <mxGeometry width="50" height="50" relative="1" as="geometry">
                        <mxPoint x="320" y="1540" as="sourcePoint"/>
                        <mxPoint x="2225" y="1540" as="targetPoint"/>
                    </mxGeometry>
                </mxCell>
                <mxCell id="37" value="width" style="text;html=1;strokeColor=none;fillColor=none;align=center;verticalAlign=middle;whiteSpace=wrap;rounded=0;fontSize=26;" vertex="1" parent="1">
                    <mxGeometry x="1210" y="1530" width="60" height="30" as="geometry"/>
                </mxCell>
                <mxCell id="45" value="" style="endArrow=none;startArrow=classic;html=1;fontSize=26;entryX=0;entryY=0.75;entryDx=0;entryDy=0;" edge="1" parent="1" target="40">
                    <mxGeometry width="50" height="50" relative="1" as="geometry">
                        <mxPoint x="1640" y="1600" as="sourcePoint"/>
                        <mxPoint x="2230" y="1600" as="targetPoint"/>
                    </mxGeometry>
                </mxCell>
                <mxCell id="40" value="rectSizeX" style="text;html=1;strokeColor=none;fillColor=none;align=center;verticalAlign=middle;whiteSpace=wrap;rounded=0;fontSize=26;" vertex="1" parent="1">
                    <mxGeometry x="1910" y="1580" width="60" height="30" as="geometry"/>
                </mxCell>
                <mxCell id="47" value="" style="endArrow=none;startArrow=classic;html=1;fontSize=26;" edge="1" parent="1" target="46">
                    <mxGeometry width="50" height="50" relative="1" as="geometry">
                        <mxPoint x="320" y="1600" as="sourcePoint"/>
                        <mxPoint x="1630" y="1600" as="targetPoint"/>
                    </mxGeometry>
                </mxCell>
                <mxCell id="46" value="width-rectSizeX" style="text;html=1;strokeColor=none;fillColor=none;align=center;verticalAlign=middle;whiteSpace=wrap;rounded=0;fontSize=26;" vertex="1" parent="1">
                    <mxGeometry x="750" y="1580" width="230" height="30" as="geometry"/>
                </mxCell>
                <mxCell id="48" value="" style="endArrow=classic;startArrow=classic;html=1;fontSize=26;" edge="1" parent="1">
                    <mxGeometry width="50" height="50" relative="1" as="geometry">
                        <mxPoint x="320" y="1650" as="sourcePoint"/>
                        <mxPoint x="960" y="1650" as="targetPoint"/>
                    </mxGeometry>
                </mxCell>
                <mxCell id="49" value="(width-rectSizeX)/2 = startCoordX" style="text;html=1;strokeColor=none;fillColor=none;align=center;verticalAlign=middle;whiteSpace=wrap;rounded=0;fontSize=26;" vertex="1" parent="1">
                    <mxGeometry x="400" y="1660" width="490" height="30" as="geometry"/>
                </mxCell>
                <mxCell id="51" value="" style="endArrow=classic;startArrow=none;html=1;fontSize=26;" edge="1" parent="1" source="52">
                    <mxGeometry width="50" height="50" relative="1" as="geometry">
                        <mxPoint x="2360" y="1420" as="sourcePoint"/>
                        <mxPoint x="2360" y="340" as="targetPoint"/>
                    </mxGeometry>
                </mxCell>
                <mxCell id="53" value="" style="endArrow=none;startArrow=classic;html=1;fontSize=26;" edge="1" parent="1" target="52">
                    <mxGeometry width="50" height="50" relative="1" as="geometry">
                        <mxPoint x="2360" y="1420" as="sourcePoint"/>
                        <mxPoint x="2360" y="340" as="targetPoint"/>
                    </mxGeometry>
                </mxCell>
                <mxCell id="52" value="height" style="text;html=1;strokeColor=none;fillColor=none;align=center;verticalAlign=middle;whiteSpace=wrap;rounded=0;fontSize=26;" vertex="1" parent="1">
                    <mxGeometry x="2330" y="850" width="60" height="30" as="geometry"/>
                </mxCell>
                <mxCell id="54" value="" style="endArrow=classic;startArrow=classic;html=1;fontSize=26;" edge="1" parent="1">
                    <mxGeometry width="50" height="50" relative="1" as="geometry">
                        <mxPoint x="2410" y="1420" as="sourcePoint"/>
                        <mxPoint x="2410" y="1030" as="targetPoint"/>
                    </mxGeometry>
                </mxCell>
                <mxCell id="55" value="rectSizeY" style="text;html=1;strokeColor=none;fillColor=none;align=center;verticalAlign=middle;whiteSpace=wrap;rounded=0;fontSize=26;" vertex="1" parent="1">
                    <mxGeometry x="2400" y="1250" width="60" height="30" as="geometry"/>
                </mxCell>
                <mxCell id="56" value="" style="endArrow=classic;startArrow=classic;html=1;fontSize=26;" edge="1" parent="1">
                    <mxGeometry width="50" height="50" relative="1" as="geometry">
                        <mxPoint x="2410" y="340" as="sourcePoint"/>
                        <mxPoint x="2410" y="1020" as="targetPoint"/>
                    </mxGeometry>
                </mxCell>
                <mxCell id="57" value="height-rectSizeY = startCoordY" style="text;html=1;strokeColor=none;fillColor=none;align=center;verticalAlign=middle;whiteSpace=wrap;rounded=0;fontSize=26;" vertex="1" parent="1">
                    <mxGeometry x="2380" y="570" width="450" height="30" as="geometry"/>
                </mxCell>
            </root>
        </mxGraphModel>
    </diagram>
</mxfile>